<svg  viewBox="0 0 393.962 297.647" fill="#0366d6"><path d="M376.233 38.655L382.519 0H101.198C44.62 0 17.352 3.736 0 10.424c0 0 5.802 16.133 8.764 32.772 2.868 16.113 3.03 29.031 3.03 29.031 19.645-4.51 40.041-7.55 69.902-7.55-3.143 81.176-22.146 174.343-49.649 232.97h57.364c25.932-49.608 48.449-150.794 52.378-230.682l124.299 6.386-.655 141.83c-.223 48.319 4.715 73.445 11.787 82.465h57.364c-5.501-14.818-9.43-38.655-9.43-88.263V38.655z"/><path d="M372.525 72.948s1.857-19.289 7.234-36.996C385.933 15.624 393.962 0 393.962 0H101.198c58.596 19.663 114.46 36.002 164.889 73.352l-.655 141.83c-.223 48.319 4.715 73.445 11.787 82.465h57.364c-5.501-14.818-9.43-38.655-9.43-88.263l.927-135.241z"/></svg>
